<?xml version="1.0" encoding="UTF-8"?>
<svg viewBox="0 0 220.00006 639.98779" xmlns="http://www.w3.org/2000/svg">
 <defs>
  <radialGradient id="c" cx="240" cy="320" r="85" gradientTransform="matrix(1.0588 1.8685e-7 -1.8685e-7 1.0588 -14.118 -18.824)" gradientUnits="userSpaceOnUse">
   <stop stop-color="#ff0" offset="0"/>
   <stop stop-color="#ff8000" offset="1"/>
  </radialGradient>
  <radialGradient id="b" cx="240" cy="320" r="85" gradientTransform="matrix(1.0588 1.8685e-7 -1.8685e-7 1.0588 -14.118 -18.824)" gradientUnits="userSpaceOnUse">
   <stop stop-color="#ff8000" offset="0"/>
   <stop stop-color="#f00" offset="1"/>
  </radialGradient>
  <radialGradient id="a" cx="240" cy="320" r="92.5" gradientUnits="userSpaceOnUse">
   <stop stop-color="#0f0" offset="0"/>
   <stop stop-color="#008000" offset="1"/>
  </radialGradient>
 </defs>
 <g transform="translate(-29.25 -631.73)" stroke="#808080" stroke-linejoin="round" stroke-width="10">
  <path transform="translate(0 572.36)" d="m34.237 64.365h210v210h-210z"/>
  <path d="m34.237 846.73h210v210h-210z"/>
  <path d="m34.237 1056.7h210v210h-210z"/>
 </g>
 <path transform="translate(-130.01 -.0035)" d="m330 320c0 49.706-40.294 90-90 90s-90-40.294-90-90 40.294-90 90-90 90 40.294 90 90z" fill="url(#c)" stroke="#808080" stroke-linecap="round" stroke-linejoin="round" stroke-opacity=".502" stroke-width="5">
  <animate attributeName="fill-opacity" calcMode="discrete" dur="20" keyTimes="0; 0.1; 0.2; 0.7; 0.85; 1" repeatCount="indefinite" values="0; 1; 0; 1; 0; 0"/>
 </path>
 <path transform="translate(-130.01 -210)" d="m330 320c0 49.706-40.294 90-90 90s-90-40.294-90-90 40.294-90 90-90 90 40.294 90 90z" fill="url(#b)" stroke="#808080" stroke-linecap="round" stroke-linejoin="round" stroke-opacity=".502" stroke-width="5">
  <animate attributeName="fill-opacity" calcMode="discrete" dur="20" keyTimes="0; 0.2; 0.85; 1" repeatCount="indefinite" values="1; 0; 1; 1"/>
 </path>
 <path transform="translate(-130.01 210)" d="m330 320c0 49.706-40.294 90-90 90s-90-40.294-90-90 40.294-90 90-90 90 40.294 90 90z" fill="url(#a)" stroke="#808080" stroke-linecap="round" stroke-linejoin="round" stroke-opacity=".502" stroke-width="5">
  <animate attributeName="fill-opacity" calcMode="discrete" dur="20" keyTimes="0; 0.2; 0.5; 0.525; 0.55; 0.575; 0.6; 0.625;  0.65; 0.675;  0.7; 1" repeatCount="indefinite" values="0; 1;  0; 1; 0; 1; 0; 1;  0; 1;  0; 1"/>
 </path>
</svg>
